<svg width="184" height="278" viewBox="0 0 184 278" fill="none" xmlns="http://www.w3.org/2000/svg">
<path d="M0 2.5H183M2.47839 4.67198L38.6085 277.655M36 275.5H146M144.521 277.658L180.779 0.709045" stroke="white" stroke-width="5"/>
<path d="M170.5 69.5L142.5 274H40.5L16 83.5C16 83.5 37 79 45.5001 88C54.0002 97 106 88 117 88C128 88 149.449 81.4766 170.5 69.5Z" fill="#77AAE7"/>
<path d="M83.0459 261C82.9521 260.812 82.876 260.479 82.8174 259.998C82.0615 260.783 81.1592 261.176 80.1104 261.176C79.1729 261.176 78.4023 260.912 77.7988 260.385C77.2012 259.852 76.9023 259.178 76.9023 258.363C76.9023 257.373 77.2773 256.605 78.0273 256.061C78.7832 255.51 79.8438 255.234 81.209 255.234H82.791V254.487C82.791 253.919 82.6211 253.468 82.2812 253.134C81.9414 252.794 81.4404 252.624 80.7783 252.624C80.1982 252.624 79.7119 252.771 79.3193 253.063C78.9268 253.356 78.7305 253.711 78.7305 254.127H77.0957C77.0957 253.652 77.2627 253.195 77.5967 252.756C77.9365 252.311 78.3936 251.959 78.9678 251.701C79.5479 251.443 80.1836 251.314 80.875 251.314C81.9707 251.314 82.8291 251.59 83.4502 252.141C84.0713 252.686 84.3936 253.438 84.417 254.399V258.776C84.417 259.649 84.5283 260.344 84.751 260.859V261H83.0459ZM80.3477 259.761C80.8574 259.761 81.3408 259.629 81.7979 259.365C82.2549 259.102 82.5859 258.759 82.791 258.337V256.386H81.5166C79.5244 256.386 78.5283 256.969 78.5283 258.135C78.5283 258.645 78.6982 259.043 79.0381 259.33C79.3779 259.617 79.8145 259.761 80.3477 259.761ZM86.5703 256.166C86.5703 254.707 86.916 253.535 87.6074 252.65C88.2988 251.76 89.2041 251.314 90.3232 251.314C91.4365 251.314 92.3184 251.695 92.9688 252.457V247.5H94.5947V261H93.1006L93.0215 259.98C92.3711 260.777 91.4658 261.176 90.3057 261.176C89.2041 261.176 88.3047 260.725 87.6074 259.822C86.916 258.92 86.5703 257.742 86.5703 256.289V256.166ZM88.1963 256.351C88.1963 257.429 88.4189 258.272 88.8643 258.882C89.3096 259.491 89.9248 259.796 90.71 259.796C91.7412 259.796 92.4941 259.333 92.9688 258.407V254.039C92.4824 253.143 91.7354 252.694 90.7275 252.694C89.9307 252.694 89.3096 253.002 88.8643 253.617C88.4189 254.232 88.1963 255.144 88.1963 256.351ZM96.7305 256.166C96.7305 254.707 97.0762 253.535 97.7676 252.65C98.459 251.76 99.3643 251.314 100.483 251.314C101.597 251.314 102.479 251.695 103.129 252.457V247.5H104.755V261H103.261L103.182 259.98C102.531 260.777 101.626 261.176 100.466 261.176C99.3643 261.176 98.4648 260.725 97.7676 259.822C97.0762 258.92 96.7305 257.742 96.7305 256.289V256.166ZM98.3564 256.351C98.3564 257.429 98.5791 258.272 99.0244 258.882C99.4697 259.491 100.085 259.796 100.87 259.796C101.901 259.796 102.654 259.333 103.129 258.407V254.039C102.643 253.143 101.896 252.694 100.888 252.694C100.091 252.694 99.4697 253.002 99.0244 253.617C98.5791 254.232 98.3564 255.144 98.3564 256.351Z" fill="white"/>
</svg>
